<svg width="16" height="16" viewBox="0 0 16 16" fill="none" xmlns="http://www.w3.org/2000/svg">
<g clip-path="url(#clip0_366_538)">
<path fill-rule="evenodd" clip-rule="evenodd" d="M4.03125 0.0475179C2.12113 0.372643 0.601974 1.75646 0.139474 3.59264C0.00122364 4.14146 0.00109863 4.14536 0.00109863 8.00002C0.00109863 11.8547 0.00122364 11.8586 0.139474 12.4074C0.561005 14.0809 1.91916 15.439 3.59263 15.8605C4.14144 15.9988 4.14535 15.9989 8 15.9989C11.8547 15.9989 11.8586 15.9988 12.4074 15.8605C13.7006 15.5348 14.8402 14.6319 15.4653 13.4375C15.7066 12.9765 15.9007 12.3781 15.9545 11.9293C15.9663 11.8302 15.9885 11.7415 16.0037 11.7321C16.0194 11.7224 16.0313 10.1005 16.0313 7.96508C16.0313 5.79411 16.0196 4.2223 16.0036 4.23221C15.9883 4.24161 15.9662 4.16861 15.9544 4.06999C15.8428 3.13802 15.3365 2.13402 14.6089 1.40161C13.8802 0.66808 12.9943 0.217955 11.9386 0.0448617C11.5659 -0.0162633 4.39182 -0.0138258 4.03125 0.0475179ZM4.21925 1.67296C2.91382 1.90911 1.90029 2.92971 1.67216 4.2378C1.60163 4.64217 1.60163 11.3579 1.67216 11.7622C1.90197 13.08 2.91997 14.098 4.23779 14.3279C4.64216 14.3984 11.3578 14.3984 11.7622 14.3279C13.08 14.098 14.098 13.08 14.3278 11.7622C14.3984 11.3579 14.3984 4.64217 14.3278 4.2378C14.098 2.91999 13.08 1.90199 11.7622 1.67217C11.382 1.60586 4.58619 1.60658 4.21925 1.67296ZM11.9916 2.91046C11.6797 2.95661 11.386 3.17371 11.2446 3.46267C11.1403 3.67592 11.1288 4.01949 11.2179 4.25692C11.4561 4.89111 12.277 5.08914 12.8076 4.64042C13.1306 4.36727 13.2304 3.88808 13.0488 3.48296C12.8646 3.07217 12.4427 2.84371 11.9916 2.91046ZM7.70313 3.86258C6.30175 3.99499 5.12763 4.72264 4.43079 5.89064C3.84188 6.87774 3.69819 8.14036 4.0486 9.24952C4.45313 10.5301 5.46988 11.5469 6.7505 11.9514C7.54525 12.2025 8.45475 12.2025 9.24951 11.9514C10.5301 11.5469 11.5469 10.5301 11.9514 9.24952C12.1414 8.64817 12.1935 7.85299 12.0812 7.26958C11.7528 5.56371 10.4876 4.27449 8.8125 3.93871C8.51725 3.87952 7.94182 3.84005 7.70313 3.86258ZM0.0151299 8.00002C0.0151299 10.0711 0.0188799 10.9184 0.0234424 9.88283C0.0280049 8.84727 0.0280049 7.15274 0.0234424 6.11721C0.0188799 5.08164 0.0151299 5.92892 0.0151299 8.00002ZM7.44891 5.54667C6.97766 5.64917 6.61401 5.85517 6.2346 6.23461C5.71554 6.75364 5.5011 7.2698 5.5011 8.00002C5.5011 8.73024 5.71554 9.24639 6.2346 9.76542C6.75363 10.2845 7.26979 10.4989 8 10.4989C8.73022 10.4989 9.24638 10.2845 9.76541 9.76542C10.2845 9.24639 10.4989 8.73024 10.4989 8.00002C10.4989 7.2698 10.2845 6.75364 9.76541 6.23461C9.38047 5.84967 9.02094 5.64792 8.53707 5.54539C8.27775 5.49042 7.70444 5.49111 7.44891 5.54667Z" fill="white"/>
</g>
<defs>
<clipPath id="clip0_366_538">
<rect width="16" height="16" fill="white"/>
</clipPath>
</defs>
</svg>
