<svg width="16" height="16" viewBox="0 0 16 16" fill="none" xmlns="http://www.w3.org/2000/svg">
<g clip-path="url(#clip0_366_544)">
<path fill-rule="evenodd" clip-rule="evenodd" d="M1.43749 0.0472803C0.766958 0.229655 0.215489 0.78678 0.047145 1.45191C-0.013355 1.69081 -0.013355 2.153 0.047145 2.39191C0.179426 2.9145 0.595832 3.43487 1.06671 3.66603C1.68586 3.96997 2.41227 3.92619 2.97658 3.55091C3.3614 3.29503 3.68646 2.83128 3.8004 2.37562C3.87043 2.09562 3.84599 1.55959 3.7509 1.28994C3.67377 1.07122 3.50165 0.790312 3.3229 0.591437C3.16599 0.416905 2.80155 0.180249 2.55549 0.093124C2.29796 0.00196776 1.69499 -0.022751 1.43749 0.0472803ZM11.5156 5.06444C10.9959 5.13528 10.4841 5.31159 10.0461 5.57053C9.70074 5.77478 9.22533 6.22244 9.03124 6.52625C8.95389 6.64731 8.88008 6.74719 8.86718 6.74819C8.85427 6.74922 8.84374 6.42659 8.84374 6.03128V5.31253H7.24999H5.65624V10.6563V16H7.32811H8.99999L9.00018 13.0391C9.00036 9.92812 9.00655 9.76669 9.14377 9.28831C9.39336 8.41825 9.98811 7.99341 10.9527 7.99622C11.7562 7.99856 12.2158 8.30194 12.4697 8.9975C12.6587 9.51559 12.6627 9.59041 12.6791 12.9453L12.694 16H14.3485H16.0029L15.9915 12.4297C15.9787 8.46803 15.9827 8.55153 15.7655 7.70316C15.3712 6.16356 14.4866 5.34234 12.9687 5.10706C12.5925 5.04872 11.8012 5.02553 11.5156 5.06444ZM0.249989 10.6563V16H1.92186H3.59374V10.6563V5.31253H1.92186H0.249989V10.6563Z" fill="white"/>
</g>
<defs>
<clipPath id="clip0_366_544">
<rect width="16" height="16" fill="white"/>
</clipPath>
</defs>
</svg>
