<svg width="56" height="56" viewBox="0 0 56 56" fill="none" xmlns="http://www.w3.org/2000/svg">
<path d="M13.9941 30.6914C9.70601 32.6149 6.99121 35.3974 6.99121 38.5043C6.99121 44.3051 16.3961 49.0087 28 49.0087C39.6038 49.0087 49.0087 44.3051 49.0087 38.5043C49.0087 35.3974 46.2939 32.6149 42.0058 30.6914" stroke="#084887" stroke-width="2" stroke-linecap="round" stroke-linejoin="round"/>
<path d="M36.5249 39.6715C33.9953 41.3175 31.0153 42.1335 28 42.0058C24.9847 42.1335 22.0047 41.3175 19.4751 39.6715" stroke="#084887" stroke-width="2" stroke-linecap="round" stroke-linejoin="round"/>
<path d="M33.1354 9.12242C35.2164 11.2033 35.839 14.3329 34.7128 17.0518C33.5866 19.7707 30.9335 21.5435 27.9906 21.5435C25.0477 21.5435 22.3946 19.7707 21.2684 17.0518C20.1422 14.3329 20.7648 11.2033 22.8458 9.12242C24.21 7.75741 26.0607 6.99048 27.9906 6.99048C29.9205 6.99048 31.7712 7.75741 33.1354 9.12242" stroke="#084887" stroke-width="2" stroke-linecap="round" stroke-linejoin="round"/>
<path d="M28.0002 21.5386V35.0028" stroke="#084887" stroke-width="2" stroke-linecap="round" stroke-linejoin="round"/>
</svg>
