<svg width="56" height="56" viewBox="0 0 56 56" fill="none" xmlns="http://www.w3.org/2000/svg">
<path fill-rule="evenodd" clip-rule="evenodd" d="M7 15.8666V15.8666C7 17.2666 7.7 18.4333 8.86667 19.3666L22.8667 28.9333C26.1333 31.0333 30.1 31.0333 33.3667 28.9333L47.3667 19.6C48.3 18.4333 49 17.2666 49 15.8666V15.8666C49 13.5333 47.1333 11.6666 44.8 11.6666H11.2C8.86667 11.6666 7 13.5333 7 15.8666Z" stroke="#084887" stroke-width="2" stroke-linecap="round" stroke-linejoin="round"/>
<path d="M7 16.3333V39.6666C7 42.2333 9.1 44.3333 11.6667 44.3333H44.3333C46.9 44.3333 49 42.2333 49 39.6666V16.3333" stroke="#084887" stroke-width="2" stroke-linecap="round" stroke-linejoin="round"/>
<path d="M8.37207 42.9613L22.5914 28.7419" stroke="#084887" stroke-width="2" stroke-linecap="round" stroke-linejoin="round"/>
<path d="M33.5068 28.84L47.6282 42.9613" stroke="#084887" stroke-width="2" stroke-linecap="round" stroke-linejoin="round"/>
</svg>
