<svg width="16" height="16" viewBox="0 0 16 16" fill="none" xmlns="http://www.w3.org/2000/svg">
<g clip-path="url(#clip0_366_541)">
<path fill-rule="evenodd" clip-rule="evenodd" d="M0.256391 0.148438C0.971047 1.14944 6.25195 8.88634 6.23989 8.91472C6.23092 8.93584 5.27873 10.05 4.12386 11.3906C2.96902 12.7312 1.60361 14.3168 1.08961 14.9141L0.155078 16L0.866609 15.9986L1.57814 15.9972L4.23439 12.9046C6.72367 10.0064 6.89358 9.81575 6.93752 9.87103C6.9633 9.90347 7.91955 11.2949 9.06252 12.9632L11.1406 15.9964L13.495 15.9982L15.8493 16L15.711 15.8047C15.41 15.3794 9.53223 6.81531 9.5242 6.79031C9.51948 6.77562 10.81 5.25925 12.392 3.42053C13.974 1.58184 15.2791 0.0600313 15.2923 0.03875C15.311 0.008375 15.1655 0 14.6181 0H13.92L11.4066 2.92188C10.0242 4.52891 8.88558 5.84334 8.8763 5.84284C8.86698 5.84234 7.95939 4.52831 6.85939 2.92272L4.85939 0.00353125L2.50489 0.00175L0.150391 0L0.256391 0.148438ZM2.14539 1.15116C2.17714 1.19991 4.36814 4.33584 7.01427 8.11991L11.8254 15H12.8674C13.7412 15 13.9053 14.9931 13.8844 14.9572C13.8706 14.9336 11.68 11.7977 9.01626 7.98841L4.17311 1.0625H3.13039H2.08764L2.14539 1.15116Z" fill="white"/>
</g>
<defs>
<clipPath id="clip0_366_541">
<rect width="16" height="16" fill="white"/>
</clipPath>
</defs>
</svg>
