<svg width="65" height="64" viewBox="0 0 65 64" fill="none" xmlns="http://www.w3.org/2000/svg">
<path d="M56.0737 22.887L34.7812 8.69206C33.3958 7.76758 31.6042 7.76758 30.2187 8.69206L20.5 15.1712V9.33464C20.5 8.59831 19.903 8.00131 19.1666 8.00131H13.8333C13.097 8.00131 12.5 8.59831 12.5 9.33464V20.5046L8.92625 22.8871C7.11057 24.0975 6.61993 26.5506 7.83046 28.3663C8.86879 29.9237 10.8196 30.4971 12.5 29.8673V48.0013H11.1666C10.4303 48.0013 9.83331 48.5983 9.83331 49.3346V54.668C9.83331 55.4043 10.4303 56.0013 11.1666 56.0013H53.8333C54.5696 56.0013 55.1666 55.4043 55.1666 54.668V49.3346C55.1666 48.5983 54.5696 48.0013 53.8333 48.0013H52.5V29.8673C54.1803 30.4971 56.1312 29.9237 57.1695 28.3663C58.38 26.5506 57.8894 24.0975 56.0737 22.887ZM15.1666 10.668H17.8333V16.949L15.1666 18.7268V10.668ZM52.5 53.3346H12.5V50.668H52.5V53.3346ZM15.1666 48.0013V28.224L32.5 16.6686L49.8333 28.224V48.0013H15.1666ZM54.9507 26.8871C54.5573 27.4773 53.7598 27.6368 53.1696 27.2433L33.2396 13.9572C32.7917 13.6586 32.2082 13.6586 31.7604 13.9572L11.8304 27.2433C11.2401 27.6368 10.4427 27.4773 10.0492 26.8871C9.65565 26.2969 9.81507 25.4994 10.4054 25.1058L31.6979 10.9108C32.1836 10.587 32.8164 10.587 33.3021 10.9108L54.5945 25.1058C55.1849 25.4993 55.3443 26.2969 54.9507 26.8871Z" fill="#084887"/>
<path d="M42.4968 33.125C43.0762 32.7331 43.2539 31.9603 42.9043 31.3542L40.571 27.3125C40.2207 26.7064 39.4616 26.4733 38.8333 26.78C38.2676 27.0553 37.6335 27.0313 37.0892 26.7181C36.5456 26.4037 36.2077 25.8646 36.1634 25.2383C36.1133 24.541 35.5332 24 34.8333 24H30.1667C29.4668 24 28.8867 24.541 28.8366 25.2383C28.7923 25.8646 28.4544 26.4036 27.9108 26.7181C27.3672 27.0312 26.7318 27.0553 26.1667 26.7799C25.5384 26.4733 24.7799 26.7064 24.429 27.3125L22.0957 31.3542C21.7461 31.9603 21.9238 32.7331 22.5032 33.125C23.0234 33.4772 23.3216 34.0391 23.3216 34.6667C23.3216 35.2943 23.0234 35.8561 22.5033 36.2083C21.9238 36.6003 21.7461 37.3731 22.0957 37.9792L24.429 42.0208C24.78 42.6269 25.5384 42.86 26.1667 42.5534C26.7318 42.2786 27.3672 42.3021 27.9108 42.6152C28.4544 42.9297 28.7923 43.4688 28.8366 44.095C28.8867 44.7923 29.4668 45.3333 30.1667 45.3333H34.8333C35.5332 45.3333 36.1133 44.7923 36.1634 44.0951C36.2077 43.4687 36.5456 42.9297 37.0892 42.6152C37.6335 42.3021 38.2676 42.2787 38.8334 42.5534C39.4616 42.86 40.2207 42.627 40.571 42.0208L42.9043 37.9792C43.2539 37.3731 43.0762 36.6003 42.4968 36.2083C41.9766 35.8561 41.6784 35.2943 41.6784 34.6667C41.6784 34.0391 41.9766 33.4772 42.4968 33.125ZM40.0625 37.5677L38.7936 39.7656C37.7611 39.5859 36.6869 39.7695 35.7559 40.306C34.8249 40.8437 34.1296 41.6836 33.7689 42.6667H31.2311C30.8704 41.6836 30.1751 40.8437 29.2442 40.306C28.3138 39.7695 27.2396 39.5859 26.2064 39.7656L24.9375 37.5677C25.6087 36.7637 25.9883 35.7415 25.9883 34.6667C25.9883 33.5918 25.6087 32.5697 24.9375 31.7656L26.2064 29.5677C27.2396 29.7493 28.3138 29.5645 29.2442 29.0273C30.1751 28.4896 30.8705 27.6497 31.2311 26.6667H33.7689C34.1296 27.6497 34.8249 28.4896 35.7559 29.0273C36.6868 29.5645 37.7611 29.7493 38.7936 29.5677L40.0625 31.7656C39.3913 32.5697 39.0117 33.5918 39.0117 34.6667C39.0117 35.7415 39.3913 36.7637 40.0625 37.5677Z" fill="#084887"/>
<path d="M32.4999 30C29.927 30 27.8333 32.0937 27.8333 34.6667C27.8333 37.2396 29.927 39.3333 32.4999 39.3333C35.0728 39.3333 37.1666 37.2396 37.1666 34.6667C37.1666 32.0937 35.0728 30 32.4999 30ZM32.4999 36.6667C31.3971 36.6667 30.4999 35.7695 30.4999 34.6667C30.4999 33.5638 31.3971 32.6667 32.4999 32.6667C33.6028 32.6667 34.4999 33.5638 34.4999 34.6667C34.4999 35.7695 33.6028 36.6667 32.4999 36.6667Z" fill="#084887"/>
</svg>
