<svg width="65" height="64" viewBox="0 0 65 64" fill="none" xmlns="http://www.w3.org/2000/svg">
<path d="M38.9038 47.6133C49.4021 44.7441 56.7344 35.1304 56.7344 24.2344C56.7344 17.7526 54.2078 11.661 49.62 7.08187C45.0433 2.51362 38.9655 0 32.5001 0C19.1338 0 8.2575 10.8874 8.26563 24.2495C8.26963 30.7365 10.8035 36.83 15.4005 41.4074C15.7674 41.7729 16.361 41.7715 16.7263 41.4046C17.0916 41.0376 17.0904 40.4441 16.7235 40.0789C12.4821 35.8556 10.1443 30.2335 10.1406 24.2484C10.1331 11.9165 20.1713 1.875 32.5001 1.875C38.4648 1.875 44.073 4.1945 48.2955 8.40888C52.5283 12.6338 54.8594 18.254 54.8594 24.2344C54.8594 34.2876 48.0949 43.1576 38.4094 45.8046C36.6641 46.2816 35.4453 47.89 35.4453 49.7156V52.4179H29.5546V49.715C29.5546 47.8911 28.3286 46.2812 26.5734 45.8C24.2368 45.1595 22.0296 44.1451 20.0133 42.7851C19.5839 42.4958 19.0013 42.6089 18.7118 43.0381C18.4223 43.4674 18.5355 44.05 18.9648 44.3395C21.1506 45.8139 23.5438 46.9136 26.0775 47.6082C27.0208 47.8667 27.6795 48.7331 27.6795 49.715V53.1343L26.035 56.4232C25.8408 56.8117 25.7381 57.2467 25.7381 57.681V62.125C25.7381 63.1589 26.5793 64 27.6131 64H37.3866C38.4205 64 39.2616 63.1589 39.2616 62.125V57.6809C39.2616 57.2465 39.159 56.8116 38.9648 56.4231L37.3203 53.1341V49.7156C37.3204 48.7326 37.9715 47.8681 38.9038 47.6133ZM37.3868 62.125H27.6133V57.6809C27.6133 57.5361 27.6475 57.3911 27.7123 57.2616L29.1966 54.2929H35.8035L37.2879 57.2616C37.3526 57.391 37.3869 57.536 37.3869 57.6809V62.125H37.3868Z" fill="#084887"/>
<path d="M20.3598 11.6332C19.9813 11.2801 19.3881 11.3007 19.0348 11.6792C15.846 15.098 14.0898 19.5567 14.0898 24.2342C14.0898 34.3856 22.3486 42.6444 32.5 42.6444C42.6513 42.6444 50.9101 34.3856 50.9101 24.2342C50.9101 14.0829 42.6513 5.82425 32.5 5.82425C29.0143 5.82425 25.6211 6.80312 22.6868 8.655C22.249 8.93137 22.1181 9.51037 22.3945 9.94825C22.6706 10.3859 23.2496 10.517 23.6876 10.2407C26.3218 8.57812 29.3692 7.69937 32.5001 7.69937C41.6176 7.69937 49.0352 15.117 49.0352 24.2345C49.0352 33.352 41.6175 40.7695 32.5 40.7695C23.3825 40.7695 15.9648 33.3519 15.9648 24.2344C15.9648 20.0332 17.5421 16.0286 20.406 12.9584C20.7591 12.5797 20.7385 11.9865 20.3598 11.6332Z" fill="#084887"/>
<path d="M26.3633 19.414H23.1055C22.4163 19.414 21.8555 19.9747 21.8555 20.664V31.0625H21.353C20.8353 31.0625 20.4155 31.4821 20.4155 32C20.4155 32.5179 20.8353 32.9375 21.353 32.9375H43.647C44.1648 32.9375 44.5845 32.5179 44.5845 32C44.5845 31.4821 44.1648 31.0625 43.647 31.0625H43.1445V27.0056C43.1445 26.4878 42.7248 26.0681 42.207 26.0681C41.6893 26.0681 41.2695 26.4878 41.2695 27.0056V31.0625H39.2618V17.4062H41.2695V22.6306C41.2695 23.1485 41.6893 23.5681 42.207 23.5681C42.7248 23.5681 43.1445 23.1485 43.1445 22.6306V16.7812C43.1445 16.092 42.5838 15.5312 41.8945 15.5312H38.6368C37.9475 15.5312 37.3868 16.092 37.3868 16.7812V31.0625H35.379V24.5469C35.379 23.8576 34.8183 23.2969 34.129 23.2969H30.8712C30.1819 23.2969 29.6212 23.8576 29.6212 24.5469V31.0625H27.6134V20.664C27.6133 19.9749 27.0525 19.414 26.3633 19.414ZM23.7305 31.0625V21.289H25.7383V31.0625H23.7305ZM31.4962 25.1719H33.504V31.0625H31.4962V25.1719Z" fill="#084887"/>
<path d="M29.732 18.8525C29.8951 19.1573 30.2129 19.3476 30.5586 19.3476H34.4415C34.9593 19.3476 35.379 18.928 35.379 18.4101C35.379 17.8923 34.9593 17.4726 34.4415 17.4726H32.3104L33.2801 16.018C33.4901 15.703 33.4901 15.2929 33.2801 14.978L32.3104 13.5234H34.4415C34.9593 13.5234 35.379 13.1038 35.379 12.5859C35.379 12.068 34.9593 11.6484 34.4415 11.6484H30.5586C30.2129 11.6484 29.8951 11.8386 29.732 12.1435C29.5689 12.4483 29.5868 12.8181 29.7786 13.1059L31.3734 15.498L29.7786 17.8901C29.5868 18.1779 29.5689 18.5478 29.732 18.8525Z" fill="#084887"/>
<path d="M31.1528 44.6524C30.6351 44.6524 30.2153 45.072 30.2153 45.5899C30.2153 46.1077 30.6351 46.5274 31.1528 46.5274H33.8428C34.3606 46.5274 34.7803 46.1077 34.7803 45.5899C34.7803 45.072 34.3606 44.6524 33.8428 44.6524H31.1528Z" fill="#084887"/>
<path d="M33.9831 56.3008H31.0168C30.4991 56.3008 30.0793 56.7204 30.0793 57.2383C30.0793 57.7561 30.4991 58.1758 31.0168 58.1758H33.9831C34.5008 58.1758 34.9206 57.7561 34.9206 57.2383C34.9206 56.7204 34.5008 56.3008 33.9831 56.3008Z" fill="#084887"/>
</svg>
