<svg width="65" height="64" viewBox="0 0 65 64" fill="none" xmlns="http://www.w3.org/2000/svg">
<path d="M12.6966 17.2359C14.003 15.5304 15.5302 14.0031 17.2357 12.6965C17.6468 12.3816 17.7247 11.7931 17.41 11.3821C17.095 10.9711 16.507 10.8931 16.0955 11.208C14.2592 12.6148 12.6147 14.2593 11.208 16.0955C10.8931 16.5066 10.9711 17.095 11.3822 17.4099C11.7925 17.7243 12.3811 17.6476 12.6966 17.2359Z" fill="#084887"/>
<path d="M28.7906 7.91007C30.9041 7.63132 33.097 7.63132 35.2105 7.91007C35.7248 7.97794 36.1949 7.61544 36.2625 7.10319C36.3303 6.58994 35.969 6.11882 35.4556 6.05107C33.1805 5.75094 30.8206 5.75094 28.5455 6.05107C28.0321 6.11882 27.6709 6.58982 27.7386 7.10319C27.8064 7.61657 28.2791 7.97757 28.7906 7.91007Z" fill="#084887"/>
<path d="M46.764 12.6964C48.4696 14.003 49.9967 15.5303 51.3031 17.2358C51.6184 17.6473 52.207 17.7244 52.6175 17.4099C53.0285 17.095 53.1065 16.5066 52.7917 16.0955C51.385 14.2593 49.7406 12.6148 47.9042 11.208C47.4931 10.8931 46.9047 10.9711 46.5897 11.3821C46.275 11.793 46.3529 12.3815 46.764 12.6964Z" fill="#084887"/>
<path d="M32.4697 33.0049C31.9519 33.0049 31.5322 33.4246 31.5322 33.9424V34.9463C31.0144 34.9463 30.5947 35.366 30.5947 35.8838C30.5947 36.4015 31.0144 36.8213 31.5322 36.8213C32.5661 36.8213 33.4072 35.9801 33.4072 34.9463V33.9424C33.4072 33.4246 32.9876 33.0049 32.4697 33.0049Z" fill="#084887"/>
<path d="M32.0003 21.3554C29.7541 21.3554 27.6016 22.3105 26.0944 23.9759C24.5871 25.6413 23.851 27.8783 24.0745 30.1131L24.6636 36.0049C25.0423 39.79 28.1964 42.6444 32.0003 42.6444C35.8041 42.6444 38.9582 39.79 39.3369 36.0048L39.926 30.1131C40.1495 27.8783 39.4133 25.6413 37.9061 23.9758C36.3989 22.3105 34.2464 21.3554 32.0003 21.3554ZM32.0003 40.7694C29.1636 40.7694 26.8116 38.6409 26.5292 35.8184L26.2411 32.9368C28.1408 32.9019 29.6754 31.3459 29.6754 29.438V28.8735C29.6754 28.6523 29.8179 28.548 29.9028 28.5055C29.9878 28.4631 30.1566 28.4116 30.3336 28.5444L32.941 30.4999C34.375 31.5754 36.0342 32.3216 37.7845 32.6844L37.4711 35.8183C37.1889 38.6409 34.8369 40.7694 32.0003 40.7694ZM38.0603 29.9266L37.9722 30.8066C36.562 30.4861 35.2268 29.8705 34.066 28.9999L31.4588 27.0444C30.7614 26.5214 29.8436 26.4388 29.0644 26.8285C28.2848 27.2184 27.8005 28.0019 27.8005 28.8735V29.438C27.8005 30.3338 27.0719 31.0624 26.1761 31.0624H26.0539L25.9404 29.9266C25.7695 28.2178 26.3324 26.5074 27.4848 25.234C28.6371 23.9606 30.283 23.2304 32.0004 23.2304C33.7178 23.2304 35.3636 23.9606 36.516 25.234C37.6684 26.5074 38.2313 28.2178 38.0603 29.9266Z" fill="#084887"/>
<path d="M59.1509 39.7685L61.8698 39.0887C63.124 38.7751 64 37.6531 64 36.3602V27.6397C64 26.3469 63.124 25.2249 61.8698 24.9112L56.8145 23.6475C56.4366 22.5249 55.9799 21.4234 55.452 20.361L58.1335 15.8916C58.7987 14.7829 58.625 13.3701 57.7106 12.4558L51.5444 6.28937C50.6301 5.37512 49.2172 5.201 48.1086 5.86637L43.6391 8.54813C42.5769 8.02013 41.4753 7.5635 40.3527 7.1855L39.089 2.13025C38.7751 0.876 37.6531 0 36.3602 0H27.6397C26.3469 0 25.2249 0.876 24.9111 2.13037L23.6474 7.1855C22.5249 7.56337 21.4233 8.02013 20.361 8.54813L15.8915 5.86637C14.783 5.20125 13.3699 5.37512 12.4559 6.28937L10.5259 8.21912C10.1597 8.58525 10.1597 9.17887 10.5259 9.54488C10.892 9.91088 11.4856 9.91113 11.8516 9.54488L13.7815 7.61513C14.0863 7.31038 14.5573 7.25262 14.9268 7.47412L19.8415 10.423C20.1214 10.5911 20.469 10.6011 20.7581 10.4499C22.0226 9.78887 23.3529 9.23738 24.7118 8.81075C25.023 8.713 25.2613 8.46025 25.3404 8.14363L26.73 2.585C26.8345 2.16688 27.2085 1.87475 27.6395 1.87475H36.36C36.791 1.87475 37.165 2.16675 37.2695 2.58488L38.6591 8.14363C38.7384 8.46025 38.9765 8.713 39.2878 8.81075C40.6466 9.23738 41.9769 9.78887 43.2414 10.4499C43.5308 10.6011 43.878 10.5909 44.158 10.423L49.0728 7.47412C49.4427 7.25238 49.9136 7.3105 50.218 7.61513L56.3843 13.7815C56.689 14.0863 56.747 14.5573 56.5252 14.9268L53.5764 19.8415C53.4084 20.1215 53.3983 20.4689 53.5495 20.7581C54.2106 22.0228 54.762 23.3529 55.1886 24.7116C55.2863 25.023 55.539 25.2611 55.8556 25.3403L61.4145 26.7299C61.8326 26.8344 62.1246 27.2085 62.1246 27.6394V36.3599C62.1246 36.7909 61.8326 37.1649 61.4145 37.2694L59.1221 37.8425C58.9564 36.9065 58.5644 36.0174 57.9741 35.2596C58.2609 32.9507 58.2308 30.679 57.9492 28.5445C57.8815 28.0311 57.4103 27.67 56.8973 27.7376C56.384 27.8054 56.0226 28.2764 56.0904 28.7896C56.2297 29.8469 56.3005 30.9268 56.3005 31.9996C56.3005 32.5869 56.2793 33.1763 56.2373 33.7627C55.3661 33.2707 54.3738 33.0035 53.3553 33.0035C51.7036 33.0035 50.1208 33.7059 49.0125 34.9305C47.9044 36.1551 47.3631 37.8 47.5274 39.4432C47.6011 40.1814 47.8548 42.7175 47.9398 43.5675C48.2192 46.3615 50.5474 48.4684 53.3553 48.4684C54.2386 48.4684 55.0745 48.2598 55.814 47.8869L56.5255 49.0729C56.7471 49.4424 56.6893 49.9132 56.3844 50.218L56.1263 50.4761H48.3387C47.7 47.1625 44.7782 44.6519 41.281 44.6519H39.1331C43.5438 42.1554 46.5271 37.4193 46.5271 31.9995C46.5271 30.7945 46.379 29.5961 46.087 28.4377C45.9604 27.9355 45.4501 27.6313 44.9489 27.7579C44.4468 27.8844 44.1424 28.394 44.269 28.896C44.5233 29.9048 44.6521 30.9489 44.6521 31.9995C44.6521 38.976 38.9764 44.6519 31.9998 44.6519C25.0231 44.6519 19.3476 38.9765 19.3476 32C19.3476 25.0235 25.0235 19.3476 32 19.3476C36.3166 19.3476 40.2935 21.5159 42.638 25.1475C42.9189 25.5825 43.4994 25.7074 43.934 25.4266C44.369 25.1458 44.494 24.5655 44.2131 24.1305C41.5217 19.9615 36.956 17.4725 31.9999 17.4725C23.9895 17.4725 17.4725 23.9895 17.4725 31.9999C17.4725 37.4196 20.4559 42.1557 24.8665 44.6522H22.7188C19.2214 44.6522 16.2996 47.163 15.6609 50.4766C14.716 50.4766 12.3791 50.4765 7.87337 50.4765L7.61525 50.2184C7.3105 49.9136 7.25262 49.4427 7.47437 49.0731L8.18575 47.8872C8.92525 48.2601 9.76112 48.4688 10.6445 48.4688C13.4524 48.4688 15.7805 46.3619 16.06 43.5677C16.2945 41.2221 16.0719 43.4495 16.4724 39.4436C16.6366 37.8003 16.0954 36.1554 14.9873 34.9309C13.879 33.7062 12.2961 33.0039 10.6445 33.0039C9.62587 33.0039 8.6335 33.2711 7.7625 33.7631C7.7205 33.1765 7.69925 32.5872 7.69925 32C7.69925 30.9271 7.76988 29.8473 7.90938 28.79C7.97713 28.2768 7.61575 27.8056 7.1025 27.738C6.589 27.67 6.11812 28.0315 6.0505 28.5449C5.76888 30.6791 5.73875 32.9508 6.0255 35.2599C5.43525 36.0176 5.04325 36.9067 4.8775 37.8428L2.58525 37.2696C2.167 37.1653 1.875 36.7912 1.875 36.3602V27.6397C1.875 27.2087 2.167 26.8347 2.58525 26.7302L8.144 25.3406C8.46062 25.2615 8.71338 25.0234 8.811 24.712C9.23763 23.3533 9.789 22.0231 10.4501 20.7585C10.6014 20.4691 10.5913 20.1219 10.4233 19.8419L7.47425 14.927C7.25262 14.5575 7.3105 14.0865 7.61525 13.7817L8.73763 12.6594C9.10375 12.2933 9.10375 11.6996 8.73763 11.3336C8.37138 10.9675 7.77787 10.9675 7.41175 11.3336L6.28937 12.456C5.37525 13.3704 5.20138 14.7833 5.8665 15.8918L8.54825 20.3611C8.02013 21.4234 7.5635 22.525 7.18563 23.6476L2.1305 24.9114C0.876125 25.2248 0 26.3468 0 27.6397V36.3602C0 37.6531 0.876125 38.7752 2.13037 39.0887L4.84912 39.7685C4.93313 40.6085 5.133 42.6082 5.229 43.5679C5.35313 44.8086 5.88125 45.9137 6.676 46.7593L5.86662 48.1085C5.42637 48.8421 5.35362 49.7091 5.61975 50.4766H5.309C2.38162 50.4765 0 52.8581 0 55.7855V61.1211C0 61.6389 0.419625 62.0586 0.9375 62.0586C4.26562 62.0586 12.024 62.0589 15.5312 62.058V62.125C15.5312 63.1589 16.3724 64 17.4062 64H46.5938C47.6276 64 48.4688 63.1589 48.4688 62.125V62.0586H63.0625C63.5804 62.0586 64 61.6389 64 61.1211V55.7855C64 52.8581 61.6184 50.4765 58.691 50.4765H58.3802C58.6465 49.709 58.5737 48.8421 58.1335 48.1085L57.324 46.7591C58.1186 45.9137 58.6469 44.8085 58.771 43.5677C58.8662 42.6156 59.0626 40.6516 59.1509 39.7685ZM10.6445 46.5938C8.81212 46.5938 7.27863 45.2202 7.09475 43.3812L6.85638 40.9969L8.62438 39.2289C8.71938 39.134 8.866 39.1116 8.98938 39.1738C10.0259 39.6953 11.2635 39.6953 12.2998 39.1738C12.4233 39.1115 12.5699 39.1339 12.6649 39.2289L14.4329 40.9969L14.1945 43.3812C14.0111 45.2126 12.4851 46.5938 10.6445 46.5938ZM13.597 36.189C14.1955 36.8504 14.5451 37.6618 14.6144 38.5269L13.9906 37.9031C13.3225 37.2351 12.3046 37.0726 11.4569 37.4989C10.9481 37.7549 10.3405 37.7549 9.83175 37.4989C8.98475 37.0726 7.9665 37.2353 7.29812 37.9033L6.67438 38.527C6.74363 37.6619 7.09325 36.8505 7.69175 36.1891C8.45625 35.3444 9.50488 34.8791 10.6442 34.8791C11.7836 34.8791 12.8325 35.3441 13.597 36.189ZM54.3594 54.3594H52.3516V52.3516H54.3594V54.3594ZM32 57.2901L30.9961 55.5332V50.4101H33.0039V55.5332L32 57.2901ZM25.8499 46.5274H29.1211V52.252L25.8499 46.5274ZM33.0039 46.5274V48.5351H30.9961V46.5274H33.0039ZM34.8789 46.5274H38.1501L34.8789 52.252V46.5274ZM11.6485 54.3594H9.64062V52.3516H11.6484V54.3594H11.6485ZM1.875 55.7855C1.875 53.892 3.4155 52.3515 5.309 52.3515H7.76562V60.1835H5.75775V57.2335C5.75775 56.7158 5.33813 56.296 4.82025 56.296C4.30237 56.296 3.88275 56.7158 3.88275 57.2335V60.1835H1.875V55.7855ZM11.6485 60.1836H9.64062V56.2344H11.6484V60.1836H11.6485ZM46.5938 62.125H42.6445V55.2969C42.6445 54.7791 42.2249 54.3594 41.707 54.3594C41.1891 54.3594 40.7695 54.7791 40.7695 55.2969V62.125H23.2305V55.2969C23.2305 54.7791 22.8109 54.3594 22.293 54.3594C21.7751 54.3594 21.3555 54.7791 21.3555 55.2969V62.125H17.4062V58.7676C17.4062 58.2499 16.9866 57.8301 16.4688 57.8301C15.9509 57.8301 15.5312 58.2499 15.5312 58.7676V60.183H13.5235V52.3517H15.5312V54.3926C15.5312 54.9104 15.9509 55.3301 16.4688 55.3301C16.9866 55.3301 17.4062 54.9104 17.4062 54.3926V51.8399C17.4062 48.9157 19.7845 46.5274 22.7188 46.5274H23.6904C23.9586 46.9967 30.8859 59.1194 31.1861 59.6449C31.353 59.9369 31.6636 60.1172 32.0001 60.1172C32.3366 60.1172 32.6473 59.937 32.8141 59.6449C33.5306 58.391 39.6353 47.7079 40.3099 46.5274H41.2814C44.2464 46.5274 46.5939 48.9519 46.5939 51.8399V62.125H46.5938ZM48.4688 52.3515H50.4765V60.1835H48.4688V52.3515ZM52.3515 56.2344H54.3592V60.1836H52.3515V56.2344ZM62.125 55.7855V60.1836H60.1172V57.2336C60.1172 56.7159 59.6976 56.2961 59.1797 56.2961C58.6619 56.2961 58.2422 56.7159 58.2422 57.2336V60.1836H56.2345V52.3516H58.6911C60.5845 52.3515 62.125 53.892 62.125 55.7855ZM53.3555 34.8789C54.4949 34.8789 55.5435 35.3441 56.308 36.189C56.7441 36.6709 57.048 37.2324 57.2076 37.8363C56.3803 37.2325 55.3645 36.8866 54.2798 36.8866H52.4311C51.3464 36.8866 50.3306 37.2325 49.5033 37.8363C49.6629 37.2324 49.9667 36.6707 50.4029 36.1889C51.1675 35.3441 52.2161 34.8789 53.3555 34.8789ZM49.8056 43.3812L49.5434 40.758C49.9952 39.5566 51.134 38.7616 52.4311 38.7616H54.2798C55.5769 38.7616 56.7157 39.5566 57.1675 40.758L56.9053 43.3811C56.7207 45.225 55.1833 46.5936 53.3555 46.5936C51.5149 46.5938 49.9889 45.2126 49.8056 43.3812Z" fill="#084887"/>
</svg>