<svg width="65" height="64" viewBox="0 0 65 64" fill="none" xmlns="http://www.w3.org/2000/svg">
<path d="M31.1666 29.3333C31.1666 27.1276 29.3724 25.3333 27.1666 25.3333C24.9609 25.3333 23.1666 27.1276 23.1666 29.3333C23.1666 31.5391 24.9609 33.3333 27.1666 33.3333C29.3724 33.3333 31.1666 31.5391 31.1666 29.3333ZM25.8333 29.3333C25.8333 28.5983 26.4309 28 27.1666 28C27.9023 28 28.5 28.5983 28.5 29.3333C28.5 30.0684 27.9023 30.6667 27.1666 30.6667C26.4309 30.6667 25.8333 30.0684 25.8333 29.3333Z" fill="#084887"/>
<path d="M37.8333 36C35.6275 36 33.8333 37.7943 33.8333 40C33.8333 42.2057 35.6275 44 37.8333 44C40.039 44 41.8333 42.2057 41.8333 40C41.8333 37.7943 40.039 36 37.8333 36ZM37.8333 41.3333C37.0976 41.3333 36.4999 40.735 36.4999 40C36.4999 39.265 37.0976 38.6667 37.8333 38.6667C38.5689 38.6667 39.1666 39.265 39.1666 40C39.1666 40.735 38.5689 41.3333 37.8333 41.3333Z" fill="#084887"/>
<path d="M37.8385 25.515C37.2044 25.1458 36.3867 25.36 36.0143 25.9948L26.681 41.9948C26.3112 42.6309 26.526 43.4473 27.1615 43.8184C27.7928 44.1866 28.6176 43.9668 28.9857 43.3385L38.319 27.3385C38.6888 26.7025 38.474 25.8861 37.8385 25.515Z" fill="#084887"/>
<path d="M56.0737 22.887L34.7812 8.69206C33.3958 7.76758 31.6042 7.76758 30.2187 8.69206L20.5 15.1712V9.33464C20.5 8.59831 19.903 8.00131 19.1666 8.00131H13.8333C13.097 8.00131 12.5 8.59831 12.5 9.33464V20.5046L8.92625 22.8871C7.11057 24.0975 6.61993 26.5506 7.83046 28.3663C8.86879 29.9237 10.8196 30.4971 12.5 29.8673V48.0013H11.1666C10.4303 48.0013 9.83331 48.5983 9.83331 49.3346V54.668C9.83331 55.4043 10.4303 56.0013 11.1666 56.0013H53.8333C54.5696 56.0013 55.1666 55.4043 55.1666 54.668V49.3346C55.1666 48.5983 54.5696 48.0013 53.8333 48.0013H52.5V29.8673C54.1803 30.4971 56.1312 29.9237 57.1695 28.3663C58.38 26.5506 57.8894 24.0975 56.0737 22.887ZM15.1666 10.668H17.8333V16.949L15.1666 18.7268V10.668ZM52.5 53.3346H12.5V50.668H52.5V53.3346ZM15.1666 48.0013V28.224L32.5 16.6686L49.8333 28.224V48.0013H15.1666ZM54.9507 26.8871C54.5573 27.4773 53.7598 27.6368 53.1696 27.2433L33.2396 13.9572C32.7917 13.6586 32.2082 13.6586 31.7604 13.9572L11.8304 27.2433C11.2401 27.6368 10.4427 27.4773 10.0492 26.8871C9.65565 26.2969 9.81507 25.4994 10.4054 25.1058L31.6979 10.9108C32.1836 10.587 32.8164 10.587 33.3021 10.9108L54.5945 25.1058C55.1849 25.4993 55.3443 26.2969 54.9507 26.8871Z" fill="#084887"/>
</svg>
